<mxfile>
    <diagram id="MvHWCSSQX3e3KkiWHiED" name="入力">
        <mxGraphModel dx="1118" dy="828" grid="1" gridSize="10" guides="1" tooltips="1" connect="1" arrows="1" fold="1" page="1" pageScale="1" pageWidth="827" pageHeight="1169" math="0" shadow="0">
            <root>
                <mxCell id="tY9Q51Z8qSHrIGonVBdd-0"/>
                <mxCell id="tY9Q51Z8qSHrIGonVBdd-1" parent="tY9Q51Z8qSHrIGonVBdd-0"/>
                <mxCell id="tY9Q51Z8qSHrIGonVBdd-7" style="edgeStyle=orthogonalEdgeStyle;rounded=0;orthogonalLoop=1;jettySize=auto;html=1;exitX=0.5;exitY=1;exitDx=0;exitDy=0;entryX=0.5;entryY=0;entryDx=0;entryDy=0;fontSize=12;" parent="tY9Q51Z8qSHrIGonVBdd-1" source="tY9Q51Z8qSHrIGonVBdd-2" target="tY9Q51Z8qSHrIGonVBdd-5" edge="1">
                    <mxGeometry relative="1" as="geometry"/>
                </mxCell>
                <mxCell id="tY9Q51Z8qSHrIGonVBdd-2" value="キーコンフィグ読み込み" style="shape=parallelogram;perimeter=parallelogramPerimeter;whiteSpace=wrap;html=1;fixedSize=1;strokeColor=#f0f0f0;fillColor=#2a2a2a;fontSize=12;align=center;" parent="tY9Q51Z8qSHrIGonVBdd-1" vertex="1">
                    <mxGeometry x="340" y="200" width="160" height="60" as="geometry"/>
                </mxCell>
                <mxCell id="tY9Q51Z8qSHrIGonVBdd-4" style="edgeStyle=orthogonalEdgeStyle;rounded=0;orthogonalLoop=1;jettySize=auto;html=1;exitX=0.5;exitY=1;exitDx=0;exitDy=0;entryX=0.5;entryY=0;entryDx=0;entryDy=0;fontSize=12;" parent="tY9Q51Z8qSHrIGonVBdd-1" source="tY9Q51Z8qSHrIGonVBdd-3" target="tY9Q51Z8qSHrIGonVBdd-2" edge="1">
                    <mxGeometry relative="1" as="geometry"/>
                </mxCell>
                <mxCell id="tY9Q51Z8qSHrIGonVBdd-3" value="はじめ" style="rounded=1;whiteSpace=wrap;html=1;strokeColor=#f0f0f0;fillColor=#2a2a2a;fontSize=12;align=center;" parent="tY9Q51Z8qSHrIGonVBdd-1" vertex="1">
                    <mxGeometry x="360" y="80" width="120" height="60" as="geometry"/>
                </mxCell>
                <mxCell id="tY9Q51Z8qSHrIGonVBdd-8" style="edgeStyle=orthogonalEdgeStyle;rounded=0;orthogonalLoop=1;jettySize=auto;html=1;exitX=0.5;exitY=1;exitDx=0;exitDy=0;entryX=0.5;entryY=0;entryDx=0;entryDy=0;fontSize=12;" parent="tY9Q51Z8qSHrIGonVBdd-1" source="tY9Q51Z8qSHrIGonVBdd-5" target="tY9Q51Z8qSHrIGonVBdd-6" edge="1">
                    <mxGeometry relative="1" as="geometry"/>
                </mxCell>
                <mxCell id="tY9Q51Z8qSHrIGonVBdd-5" value="キーコンフィグ反映" style="rounded=0;whiteSpace=wrap;html=1;strokeColor=#f0f0f0;fillColor=#2a2a2a;fontSize=12;align=center;" parent="tY9Q51Z8qSHrIGonVBdd-1" vertex="1">
                    <mxGeometry x="360" y="320" width="120" height="60" as="geometry"/>
                </mxCell>
                <mxCell id="tY9Q51Z8qSHrIGonVBdd-6" value="InputSystem" style="rounded=0;whiteSpace=wrap;html=1;strokeColor=#f0f0f0;fillColor=#2a2a2a;fontSize=12;align=center;" parent="tY9Q51Z8qSHrIGonVBdd-1" vertex="1">
                    <mxGeometry x="360" y="460" width="120" height="60" as="geometry"/>
                </mxCell>
                <mxCell id="tY9Q51Z8qSHrIGonVBdd-12" style="edgeStyle=orthogonalEdgeStyle;rounded=0;orthogonalLoop=1;jettySize=auto;html=1;exitX=0.5;exitY=1;exitDx=0;exitDy=0;entryX=0.5;entryY=0;entryDx=0;entryDy=0;fontSize=12;" parent="tY9Q51Z8qSHrIGonVBdd-1" source="tY9Q51Z8qSHrIGonVBdd-9" target="tY9Q51Z8qSHrIGonVBdd-11" edge="1">
                    <mxGeometry relative="1" as="geometry"/>
                </mxCell>
                <mxCell id="tY9Q51Z8qSHrIGonVBdd-9" value="キーボード" style="shape=parallelogram;perimeter=parallelogramPerimeter;whiteSpace=wrap;html=1;fixedSize=1;strokeColor=#f0f0f0;fillColor=#2a2a2a;fontSize=12;align=center;" parent="tY9Q51Z8qSHrIGonVBdd-1" vertex="1">
                    <mxGeometry x="260" y="600" width="120" height="60" as="geometry"/>
                </mxCell>
                <mxCell id="tY9Q51Z8qSHrIGonVBdd-13" style="edgeStyle=orthogonalEdgeStyle;rounded=0;orthogonalLoop=1;jettySize=auto;html=1;exitX=0.5;exitY=1;exitDx=0;exitDy=0;entryX=0.5;entryY=0;entryDx=0;entryDy=0;fontSize=12;" parent="tY9Q51Z8qSHrIGonVBdd-1" source="tY9Q51Z8qSHrIGonVBdd-10" target="tY9Q51Z8qSHrIGonVBdd-11" edge="1">
                    <mxGeometry relative="1" as="geometry"/>
                </mxCell>
                <mxCell id="tY9Q51Z8qSHrIGonVBdd-10" value="コントローラー" style="shape=parallelogram;perimeter=parallelogramPerimeter;whiteSpace=wrap;html=1;fixedSize=1;strokeColor=#f0f0f0;fillColor=#2a2a2a;fontSize=12;align=center;" parent="tY9Q51Z8qSHrIGonVBdd-1" vertex="1">
                    <mxGeometry x="460" y="600" width="120" height="60" as="geometry"/>
                </mxCell>
                <mxCell id="tY9Q51Z8qSHrIGonVBdd-15" style="edgeStyle=orthogonalEdgeStyle;rounded=0;orthogonalLoop=1;jettySize=auto;html=1;exitX=0.5;exitY=1;exitDx=0;exitDy=0;entryX=0.5;entryY=0;entryDx=0;entryDy=0;fontSize=12;" parent="tY9Q51Z8qSHrIGonVBdd-1" source="tY9Q51Z8qSHrIGonVBdd-11" target="tY9Q51Z8qSHrIGonVBdd-14" edge="1">
                    <mxGeometry relative="1" as="geometry"/>
                </mxCell>
                <mxCell id="tY9Q51Z8qSHrIGonVBdd-11" value="InputSystem" style="rounded=0;whiteSpace=wrap;html=1;strokeColor=#f0f0f0;fillColor=#2a2a2a;fontSize=12;align=center;" parent="tY9Q51Z8qSHrIGonVBdd-1" vertex="1">
                    <mxGeometry x="360" y="720" width="120" height="60" as="geometry"/>
                </mxCell>
                <mxCell id="tY9Q51Z8qSHrIGonVBdd-14" value="Call Back" style="rounded=0;whiteSpace=wrap;html=1;strokeColor=#f0f0f0;fillColor=#2a2a2a;fontSize=12;align=center;" parent="tY9Q51Z8qSHrIGonVBdd-1" vertex="1">
                    <mxGeometry x="360" y="830" width="120" height="60" as="geometry"/>
                </mxCell>
            </root>
        </mxGraphModel>
    </diagram>
    <diagram id="OLlCQ4FDFjsKuJYOyfkO" name="タイトル">
        <mxGraphModel dx="1118" dy="828" grid="1" gridSize="10" guides="1" tooltips="1" connect="1" arrows="1" fold="1" page="1" pageScale="1" pageWidth="827" pageHeight="1169" math="0" shadow="0">
            <root>
                <mxCell id="0"/>
                <mxCell id="1" parent="0"/>
                <mxCell id="FPiUqXLUS5DOBjbjvxEt-28" style="edgeStyle=orthogonalEdgeStyle;rounded=0;orthogonalLoop=1;jettySize=auto;html=1;exitX=0.5;exitY=1;exitDx=0;exitDy=0;entryX=0.5;entryY=0;entryDx=0;entryDy=0;fontSize=30;" parent="1" source="2" target="FPiUqXLUS5DOBjbjvxEt-27" edge="1">
                    <mxGeometry relative="1" as="geometry"/>
                </mxCell>
                <mxCell id="2" value="はじめ" style="rounded=1;whiteSpace=wrap;html=1;" parent="1" vertex="1">
                    <mxGeometry x="354" y="30" width="120" height="60" as="geometry"/>
                </mxCell>
                <mxCell id="17" style="edgeStyle=orthogonalEdgeStyle;rounded=0;orthogonalLoop=1;jettySize=auto;html=1;exitX=0.5;exitY=1;exitDx=0;exitDy=0;entryX=0.5;entryY=0;entryDx=0;entryDy=0;" parent="1" source="3" target="4" edge="1">
                    <mxGeometry relative="1" as="geometry"/>
                </mxCell>
                <mxCell id="3" value="タイトル" style="rounded=0;whiteSpace=wrap;html=1;" parent="1" vertex="1">
                    <mxGeometry x="354" y="270" width="120" height="60" as="geometry"/>
                </mxCell>
                <mxCell id="13" style="edgeStyle=orthogonalEdgeStyle;rounded=0;orthogonalLoop=1;jettySize=auto;html=1;exitX=0;exitY=0.5;exitDx=0;exitDy=0;entryX=0.5;entryY=0;entryDx=0;entryDy=0;" parent="1" source="4" target="6" edge="1">
                    <mxGeometry relative="1" as="geometry"/>
                </mxCell>
                <mxCell id="14" style="edgeStyle=orthogonalEdgeStyle;rounded=0;orthogonalLoop=1;jettySize=auto;html=1;exitX=0.5;exitY=1;exitDx=0;exitDy=0;entryX=0.5;entryY=0;entryDx=0;entryDy=0;" parent="1" source="4" target="7" edge="1">
                    <mxGeometry relative="1" as="geometry"/>
                </mxCell>
                <mxCell id="15" style="edgeStyle=orthogonalEdgeStyle;rounded=0;orthogonalLoop=1;jettySize=auto;html=1;exitX=1;exitY=0.5;exitDx=0;exitDy=0;entryX=0.5;entryY=0;entryDx=0;entryDy=0;" parent="1" source="4" target="9" edge="1">
                    <mxGeometry relative="1" as="geometry"/>
                </mxCell>
                <mxCell id="4" value="選択肢" style="rhombus;whiteSpace=wrap;html=1;" parent="1" vertex="1">
                    <mxGeometry x="374" y="390" width="80" height="80" as="geometry"/>
                </mxCell>
                <mxCell id="6" value="設定" style="rounded=1;whiteSpace=wrap;html=1;" parent="1" vertex="1">
                    <mxGeometry x="194" y="510" width="120" height="60" as="geometry"/>
                </mxCell>
                <mxCell id="7" value="ステージセレクト" style="rounded=1;whiteSpace=wrap;html=1;" parent="1" vertex="1">
                    <mxGeometry x="354" y="510" width="120" height="60" as="geometry"/>
                </mxCell>
                <mxCell id="9" value="ゲーム終了" style="rounded=1;whiteSpace=wrap;html=1;" parent="1" vertex="1">
                    <mxGeometry x="514" y="510" width="120" height="60" as="geometry"/>
                </mxCell>
                <mxCell id="27" value="" style="group" parent="1" vertex="1" connectable="0">
                    <mxGeometry x="114" y="650" width="600" height="350" as="geometry"/>
                </mxCell>
                <mxCell id="19" value="" style="rounded=0;whiteSpace=wrap;html=1;" parent="27" vertex="1">
                    <mxGeometry width="600" height="350" as="geometry"/>
                </mxCell>
                <mxCell id="21" value="タイトル" style="text;html=1;strokeColor=none;fillColor=none;align=center;verticalAlign=middle;whiteSpace=wrap;rounded=0;fontSize=50;" parent="27" vertex="1">
                    <mxGeometry x="16" y="40" width="220" height="140" as="geometry"/>
                </mxCell>
                <mxCell id="23" value="Start&lt;br&gt;Option&lt;br&gt;&lt;div&gt;&lt;span&gt;Quit&lt;/span&gt;&lt;/div&gt;" style="text;html=1;strokeColor=none;fillColor=none;align=left;verticalAlign=middle;whiteSpace=wrap;rounded=0;fontSize=30;" parent="27" vertex="1">
                    <mxGeometry x="16" y="230" width="150" height="75" as="geometry"/>
                </mxCell>
                <mxCell id="25" value="&lt;span style=&quot;font-style: normal&quot;&gt;&lt;b&gt;要変更&lt;/b&gt;&lt;/span&gt;" style="text;html=1;strokeColor=none;fillColor=none;align=center;verticalAlign=middle;whiteSpace=wrap;rounded=0;fontSize=30;fontStyle=2" parent="27" vertex="1">
                    <mxGeometry x="466" y="290" width="110" height="30" as="geometry"/>
                </mxCell>
                <mxCell id="FPiUqXLUS5DOBjbjvxEt-29" style="edgeStyle=orthogonalEdgeStyle;rounded=0;orthogonalLoop=1;jettySize=auto;html=1;exitX=0.5;exitY=1;exitDx=0;exitDy=0;entryX=0.5;entryY=0;entryDx=0;entryDy=0;fontSize=30;" parent="1" source="FPiUqXLUS5DOBjbjvxEt-27" target="3" edge="1">
                    <mxGeometry relative="1" as="geometry"/>
                </mxCell>
                <mxCell id="FPiUqXLUS5DOBjbjvxEt-27" value="&lt;font style=&quot;font-size: 12px&quot;&gt;セーブファイル、設定ファイル&lt;br&gt;読み込み&lt;/font&gt;" style="shape=parallelogram;perimeter=parallelogramPerimeter;whiteSpace=wrap;html=1;fixedSize=1;rounded=0;fontSize=30;align=center;" parent="1" vertex="1">
                    <mxGeometry x="307" y="130" width="214" height="82" as="geometry"/>
                </mxCell>
            </root>
        </mxGraphModel>
    </diagram>
    <diagram id="NQFGz64XYPDGoa7to2NR" name="設定">
        <mxGraphModel dx="1118" dy="828" grid="1" gridSize="10" guides="1" tooltips="1" connect="1" arrows="1" fold="1" page="1" pageScale="1" pageWidth="827" pageHeight="1169" math="0" shadow="0">
            <root>
                <mxCell id="ShIRzIYc7heRDEOFursd-0"/>
                <mxCell id="ShIRzIYc7heRDEOFursd-1" parent="ShIRzIYc7heRDEOFursd-0"/>
                <mxCell id="vU93pefcQHkQWG4s5k0u-6" style="edgeStyle=orthogonalEdgeStyle;rounded=0;orthogonalLoop=1;jettySize=auto;html=1;exitX=0.5;exitY=1;exitDx=0;exitDy=0;entryX=0.5;entryY=0;entryDx=0;entryDy=0;fontSize=12;" parent="ShIRzIYc7heRDEOFursd-1" source="ShIRzIYc7heRDEOFursd-2" target="vU93pefcQHkQWG4s5k0u-0" edge="1">
                    <mxGeometry relative="1" as="geometry"/>
                </mxCell>
                <mxCell id="ShIRzIYc7heRDEOFursd-2" value="設定" style="rounded=1;whiteSpace=wrap;html=1;fontSize=12;align=center;" parent="ShIRzIYc7heRDEOFursd-1" vertex="1">
                    <mxGeometry x="409" y="80" width="120" height="60" as="geometry"/>
                </mxCell>
                <mxCell id="vU93pefcQHkQWG4s5k0u-7" style="edgeStyle=orthogonalEdgeStyle;rounded=0;orthogonalLoop=1;jettySize=auto;html=1;exitX=0.5;exitY=1;exitDx=0;exitDy=0;entryX=0.5;entryY=0;entryDx=0;entryDy=0;fontSize=12;" parent="ShIRzIYc7heRDEOFursd-1" source="vU93pefcQHkQWG4s5k0u-0" target="vU93pefcQHkQWG4s5k0u-1" edge="1">
                    <mxGeometry relative="1" as="geometry"/>
                </mxCell>
                <mxCell id="vU93pefcQHkQWG4s5k0u-0" value="設定項目表示" style="rounded=0;whiteSpace=wrap;html=1;fontSize=12;" parent="ShIRzIYc7heRDEOFursd-1" vertex="1">
                    <mxGeometry x="409" y="190" width="120" height="60" as="geometry"/>
                </mxCell>
                <mxCell id="vU93pefcQHkQWG4s5k0u-8" style="edgeStyle=orthogonalEdgeStyle;rounded=0;orthogonalLoop=1;jettySize=auto;html=1;exitX=0;exitY=0.5;exitDx=0;exitDy=0;entryX=0.5;entryY=0;entryDx=0;entryDy=0;fontSize=12;" parent="ShIRzIYc7heRDEOFursd-1" source="vU93pefcQHkQWG4s5k0u-1" target="vU93pefcQHkQWG4s5k0u-3" edge="1">
                    <mxGeometry relative="1" as="geometry"/>
                </mxCell>
                <mxCell id="vU93pefcQHkQWG4s5k0u-9" style="edgeStyle=orthogonalEdgeStyle;rounded=0;orthogonalLoop=1;jettySize=auto;html=1;exitX=1;exitY=0.5;exitDx=0;exitDy=0;entryX=0.5;entryY=0;entryDx=0;entryDy=0;fontSize=12;" parent="ShIRzIYc7heRDEOFursd-1" source="vU93pefcQHkQWG4s5k0u-1" target="vU93pefcQHkQWG4s5k0u-4" edge="1">
                    <mxGeometry relative="1" as="geometry"/>
                </mxCell>
                <mxCell id="vU93pefcQHkQWG4s5k0u-10" style="edgeStyle=orthogonalEdgeStyle;rounded=0;orthogonalLoop=1;jettySize=auto;html=1;exitX=0.5;exitY=1;exitDx=0;exitDy=0;entryX=0.5;entryY=0;entryDx=0;entryDy=0;fontSize=12;" parent="ShIRzIYc7heRDEOFursd-1" source="vU93pefcQHkQWG4s5k0u-1" target="vU93pefcQHkQWG4s5k0u-2" edge="1">
                    <mxGeometry relative="1" as="geometry"/>
                </mxCell>
                <mxCell id="vU93pefcQHkQWG4s5k0u-16" style="edgeStyle=orthogonalEdgeStyle;rounded=0;orthogonalLoop=1;jettySize=auto;html=1;exitX=0;exitY=0.5;exitDx=0;exitDy=0;entryX=0.5;entryY=0;entryDx=0;entryDy=0;fontSize=12;" parent="ShIRzIYc7heRDEOFursd-1" source="vU93pefcQHkQWG4s5k0u-1" target="vU93pefcQHkQWG4s5k0u-15" edge="1">
                    <mxGeometry relative="1" as="geometry"/>
                </mxCell>
                <mxCell id="vU93pefcQHkQWG4s5k0u-1" value="項目選択" style="rhombus;whiteSpace=wrap;html=1;fontSize=12;" parent="ShIRzIYc7heRDEOFursd-1" vertex="1">
                    <mxGeometry x="429" y="290" width="80" height="80" as="geometry"/>
                </mxCell>
                <mxCell id="vU93pefcQHkQWG4s5k0u-27" style="edgeStyle=orthogonalEdgeStyle;rounded=0;orthogonalLoop=1;jettySize=auto;html=1;exitX=0.5;exitY=1;exitDx=0;exitDy=0;entryX=0.5;entryY=0;entryDx=0;entryDy=0;fontSize=12;" parent="ShIRzIYc7heRDEOFursd-1" source="vU93pefcQHkQWG4s5k0u-2" target="vU93pefcQHkQWG4s5k0u-24" edge="1">
                    <mxGeometry relative="1" as="geometry"/>
                </mxCell>
                <mxCell id="vU93pefcQHkQWG4s5k0u-2" value="言語" style="rounded=0;whiteSpace=wrap;html=1;fontSize=12;" parent="ShIRzIYc7heRDEOFursd-1" vertex="1">
                    <mxGeometry x="409" y="440" width="120" height="60" as="geometry"/>
                </mxCell>
                <mxCell id="vU93pefcQHkQWG4s5k0u-26" style="edgeStyle=orthogonalEdgeStyle;rounded=0;orthogonalLoop=1;jettySize=auto;html=1;exitX=0.5;exitY=1;exitDx=0;exitDy=0;entryX=0.5;entryY=0;entryDx=0;entryDy=0;fontSize=12;" parent="ShIRzIYc7heRDEOFursd-1" source="vU93pefcQHkQWG4s5k0u-3" target="vU93pefcQHkQWG4s5k0u-23" edge="1">
                    <mxGeometry relative="1" as="geometry"/>
                </mxCell>
                <mxCell id="vU93pefcQHkQWG4s5k0u-3" value="音量" style="rounded=0;whiteSpace=wrap;html=1;fontSize=12;" parent="ShIRzIYc7heRDEOFursd-1" vertex="1">
                    <mxGeometry x="239" y="440" width="120" height="60" as="geometry"/>
                </mxCell>
                <mxCell id="vU93pefcQHkQWG4s5k0u-28" style="edgeStyle=orthogonalEdgeStyle;rounded=0;orthogonalLoop=1;jettySize=auto;html=1;exitX=0.5;exitY=1;exitDx=0;exitDy=0;entryX=0.5;entryY=0;entryDx=0;entryDy=0;fontSize=12;" parent="ShIRzIYc7heRDEOFursd-1" source="vU93pefcQHkQWG4s5k0u-4" target="vU93pefcQHkQWG4s5k0u-25" edge="1">
                    <mxGeometry relative="1" as="geometry"/>
                </mxCell>
                <mxCell id="vU93pefcQHkQWG4s5k0u-4" value="キーコンフィグ" style="rounded=0;whiteSpace=wrap;html=1;fontSize=12;" parent="ShIRzIYc7heRDEOFursd-1" vertex="1">
                    <mxGeometry x="579" y="440" width="120" height="60" as="geometry"/>
                </mxCell>
                <mxCell id="vU93pefcQHkQWG4s5k0u-22" style="edgeStyle=orthogonalEdgeStyle;rounded=0;orthogonalLoop=1;jettySize=auto;html=1;exitX=0.5;exitY=1;exitDx=0;exitDy=0;entryX=1;entryY=0.5;entryDx=0;entryDy=0;fontSize=12;" parent="ShIRzIYc7heRDEOFursd-1" source="vU93pefcQHkQWG4s5k0u-5" target="vU93pefcQHkQWG4s5k0u-0" edge="1">
                    <mxGeometry relative="1" as="geometry">
                        <Array as="points">
                            <mxPoint x="469" y="870"/>
                            <mxPoint x="759" y="870"/>
                            <mxPoint x="759" y="220"/>
                        </Array>
                    </mxGeometry>
                </mxCell>
                <mxCell id="vU93pefcQHkQWG4s5k0u-5" value="設定ファイルに書き込み" style="shape=parallelogram;perimeter=parallelogramPerimeter;whiteSpace=wrap;html=1;fixedSize=1;fontSize=12;" parent="ShIRzIYc7heRDEOFursd-1" vertex="1">
                    <mxGeometry x="389" y="740" width="160" height="60" as="geometry"/>
                </mxCell>
                <mxCell id="vU93pefcQHkQWG4s5k0u-21" style="edgeStyle=orthogonalEdgeStyle;rounded=0;orthogonalLoop=1;jettySize=auto;html=1;exitX=0.5;exitY=1;exitDx=0;exitDy=0;entryX=0.5;entryY=0;entryDx=0;entryDy=0;fontSize=12;" parent="ShIRzIYc7heRDEOFursd-1" source="vU93pefcQHkQWG4s5k0u-15" target="vU93pefcQHkQWG4s5k0u-20" edge="1">
                    <mxGeometry relative="1" as="geometry"/>
                </mxCell>
                <mxCell id="vU93pefcQHkQWG4s5k0u-15" value="戻る" style="rounded=0;whiteSpace=wrap;html=1;fontSize=12;" parent="ShIRzIYc7heRDEOFursd-1" vertex="1">
                    <mxGeometry x="69" y="440" width="120" height="60" as="geometry"/>
                </mxCell>
                <mxCell id="vU93pefcQHkQWG4s5k0u-20" value="直前の画面" style="rounded=1;whiteSpace=wrap;html=1;fontSize=12;" parent="ShIRzIYc7heRDEOFursd-1" vertex="1">
                    <mxGeometry x="69" y="575" width="120" height="60" as="geometry"/>
                </mxCell>
                <mxCell id="vU93pefcQHkQWG4s5k0u-29" style="edgeStyle=orthogonalEdgeStyle;rounded=0;orthogonalLoop=1;jettySize=auto;html=1;exitX=0.5;exitY=1;exitDx=0;exitDy=0;entryX=0.5;entryY=0;entryDx=0;entryDy=0;fontSize=12;" parent="ShIRzIYc7heRDEOFursd-1" source="vU93pefcQHkQWG4s5k0u-23" target="vU93pefcQHkQWG4s5k0u-5" edge="1">
                    <mxGeometry relative="1" as="geometry"/>
                </mxCell>
                <mxCell id="vU93pefcQHkQWG4s5k0u-23" value="バー操作" style="rounded=0;whiteSpace=wrap;html=1;fontSize=12;" parent="ShIRzIYc7heRDEOFursd-1" vertex="1">
                    <mxGeometry x="239" y="575" width="120" height="60" as="geometry"/>
                </mxCell>
                <mxCell id="vU93pefcQHkQWG4s5k0u-30" style="edgeStyle=orthogonalEdgeStyle;rounded=0;orthogonalLoop=1;jettySize=auto;html=1;exitX=0.5;exitY=1;exitDx=0;exitDy=0;entryX=0.5;entryY=0;entryDx=0;entryDy=0;fontSize=12;" parent="ShIRzIYc7heRDEOFursd-1" source="vU93pefcQHkQWG4s5k0u-24" target="vU93pefcQHkQWG4s5k0u-5" edge="1">
                    <mxGeometry relative="1" as="geometry"/>
                </mxCell>
                <mxCell id="vU93pefcQHkQWG4s5k0u-24" value="リスト操作" style="rounded=0;whiteSpace=wrap;html=1;fontSize=12;" parent="ShIRzIYc7heRDEOFursd-1" vertex="1">
                    <mxGeometry x="409" y="575" width="120" height="60" as="geometry"/>
                </mxCell>
                <mxCell id="vU93pefcQHkQWG4s5k0u-31" style="edgeStyle=orthogonalEdgeStyle;rounded=0;orthogonalLoop=1;jettySize=auto;html=1;exitX=0.5;exitY=1;exitDx=0;exitDy=0;entryX=0.5;entryY=0;entryDx=0;entryDy=0;fontSize=12;" parent="ShIRzIYc7heRDEOFursd-1" source="vU93pefcQHkQWG4s5k0u-25" target="vU93pefcQHkQWG4s5k0u-5" edge="1">
                    <mxGeometry relative="1" as="geometry"/>
                </mxCell>
                <mxCell id="vU93pefcQHkQWG4s5k0u-25" value="テーブル操作" style="rounded=0;whiteSpace=wrap;html=1;fontSize=12;" parent="ShIRzIYc7heRDEOFursd-1" vertex="1">
                    <mxGeometry x="579" y="575" width="120" height="60" as="geometry"/>
                </mxCell>
                <mxCell id="xeK9FwHJkOKHolxAsqoF-0" value="" style="group;fillColor=#2a2a2a;" parent="ShIRzIYc7heRDEOFursd-1" vertex="1" connectable="0">
                    <mxGeometry x="42.999999999999986" y="965" width="342.86" height="200" as="geometry"/>
                </mxCell>
                <mxCell id="xeK9FwHJkOKHolxAsqoF-1" value="" style="rounded=0;whiteSpace=wrap;html=1;" parent="xeK9FwHJkOKHolxAsqoF-0" vertex="1">
                    <mxGeometry y="-5" width="342.86" height="200" as="geometry"/>
                </mxCell>
                <mxCell id="xeK9FwHJkOKHolxAsqoF-5" value="オプション" style="text;html=1;strokeColor=none;fillColor=none;align=left;verticalAlign=middle;whiteSpace=wrap;rounded=0;fontSize=20;" parent="xeK9FwHJkOKHolxAsqoF-0" vertex="1">
                    <mxGeometry x="28" y="20" width="112" height="20" as="geometry"/>
                </mxCell>
                <mxCell id="xeK9FwHJkOKHolxAsqoF-8" value="" style="rounded=0;whiteSpace=wrap;html=1;fontSize=20;align=left;fillColor=#FFFFFF;" parent="xeK9FwHJkOKHolxAsqoF-0" vertex="1">
                    <mxGeometry x="198" y="60" width="120" height="10" as="geometry"/>
                </mxCell>
                <mxCell id="xeK9FwHJkOKHolxAsqoF-9" value="" style="rounded=0;whiteSpace=wrap;html=1;fontSize=20;align=left;fillColor=#FFFFFF;" parent="xeK9FwHJkOKHolxAsqoF-0" vertex="1">
                    <mxGeometry x="198" y="85" width="120" height="10" as="geometry"/>
                </mxCell>
                <mxCell id="xeK9FwHJkOKHolxAsqoF-10" value="&lt;font style=&quot;font-size: 12px&quot;&gt;日本語&lt;/font&gt;" style="text;html=1;strokeColor=none;fillColor=none;align=left;verticalAlign=middle;whiteSpace=wrap;rounded=0;fontSize=20;" parent="xeK9FwHJkOKHolxAsqoF-0" vertex="1">
                    <mxGeometry x="198" y="110" width="40" height="20" as="geometry"/>
                </mxCell>
                <mxCell id="xeK9FwHJkOKHolxAsqoF-11" value="BGMボリューム" style="text;html=1;strokeColor=none;fillColor=none;align=left;verticalAlign=middle;whiteSpace=wrap;rounded=0;fontSize=12;" parent="xeK9FwHJkOKHolxAsqoF-0" vertex="1">
                    <mxGeometry x="28" y="55" width="92" height="20" as="geometry"/>
                </mxCell>
                <mxCell id="xeK9FwHJkOKHolxAsqoF-12" value="SEボリューム" style="text;html=1;strokeColor=none;fillColor=none;align=left;verticalAlign=middle;whiteSpace=wrap;rounded=0;fontSize=12;" parent="xeK9FwHJkOKHolxAsqoF-0" vertex="1">
                    <mxGeometry x="28" y="80" width="92" height="20" as="geometry"/>
                </mxCell>
                <mxCell id="xeK9FwHJkOKHolxAsqoF-13" value="言語" style="text;html=1;strokeColor=none;fillColor=none;align=left;verticalAlign=middle;whiteSpace=wrap;rounded=0;fontSize=12;" parent="xeK9FwHJkOKHolxAsqoF-0" vertex="1">
                    <mxGeometry x="28" y="110" width="40" height="20" as="geometry"/>
                </mxCell>
                <mxCell id="xeK9FwHJkOKHolxAsqoF-14" value="キーコンフィグ" style="text;html=1;strokeColor=none;fillColor=none;align=left;verticalAlign=middle;whiteSpace=wrap;rounded=0;fontSize=12;" parent="xeK9FwHJkOKHolxAsqoF-0" vertex="1">
                    <mxGeometry x="28" y="140" width="100" height="20" as="geometry"/>
                </mxCell>
                <mxCell id="xeK9FwHJkOKHolxAsqoF-38" style="edgeStyle=orthogonalEdgeStyle;rounded=0;orthogonalLoop=1;jettySize=auto;html=1;exitX=1;exitY=0.5;exitDx=0;exitDy=0;entryX=0;entryY=0.5;entryDx=0;entryDy=0;fontSize=12;" parent="ShIRzIYc7heRDEOFursd-1" source="xeK9FwHJkOKHolxAsqoF-1" target="xeK9FwHJkOKHolxAsqoF-16" edge="1">
                    <mxGeometry relative="1" as="geometry"/>
                </mxCell>
                <mxCell id="xeK9FwHJkOKHolxAsqoF-39" value="" style="group" parent="ShIRzIYc7heRDEOFursd-1" vertex="1" connectable="0">
                    <mxGeometry x="440.86" y="960" width="342.86" height="200" as="geometry"/>
                </mxCell>
                <mxCell id="xeK9FwHJkOKHolxAsqoF-16" value="" style="rounded=0;whiteSpace=wrap;html=1;" parent="xeK9FwHJkOKHolxAsqoF-39" vertex="1">
                    <mxGeometry width="342.86" height="200" as="geometry"/>
                </mxCell>
                <mxCell id="xeK9FwHJkOKHolxAsqoF-17" value="オプション" style="text;html=1;strokeColor=none;fillColor=none;align=left;verticalAlign=middle;whiteSpace=wrap;rounded=0;fontSize=20;" parent="xeK9FwHJkOKHolxAsqoF-39" vertex="1">
                    <mxGeometry x="28" y="25" width="112" height="20" as="geometry"/>
                </mxCell>
                <mxCell id="xeK9FwHJkOKHolxAsqoF-24" value="キーコンフィグ" style="text;html=1;strokeColor=none;fillColor=none;align=left;verticalAlign=middle;whiteSpace=wrap;rounded=0;fontSize=12;" parent="xeK9FwHJkOKHolxAsqoF-39" vertex="1">
                    <mxGeometry x="28" y="55" width="100" height="20" as="geometry"/>
                </mxCell>
                <mxCell id="xeK9FwHJkOKHolxAsqoF-25" value="" style="shape=table;html=1;whiteSpace=wrap;startSize=0;container=1;collapsible=0;childLayout=tableLayout;fontSize=12;align=left;fillColor=none;" parent="xeK9FwHJkOKHolxAsqoF-39" vertex="1">
                    <mxGeometry x="41.43000000000001" y="85" width="260" height="97.5" as="geometry"/>
                </mxCell>
                <mxCell id="xeK9FwHJkOKHolxAsqoF-26" value="" style="shape=partialRectangle;html=1;whiteSpace=wrap;collapsible=0;dropTarget=0;pointerEvents=0;fillColor=none;top=0;left=0;bottom=0;right=0;points=[[0,0.5],[1,0.5]];portConstraint=eastwest;" parent="xeK9FwHJkOKHolxAsqoF-25" vertex="1">
                    <mxGeometry width="260" height="33" as="geometry"/>
                </mxCell>
                <mxCell id="xeK9FwHJkOKHolxAsqoF-27" value="操作" style="shape=partialRectangle;html=1;whiteSpace=wrap;connectable=0;fillColor=none;top=0;left=0;bottom=0;right=0;overflow=hidden;" parent="xeK9FwHJkOKHolxAsqoF-26" vertex="1">
                    <mxGeometry width="86" height="33" as="geometry"/>
                </mxCell>
                <mxCell id="xeK9FwHJkOKHolxAsqoF-28" value="キーボード" style="shape=partialRectangle;html=1;whiteSpace=wrap;connectable=0;fillColor=none;top=0;left=0;bottom=0;right=0;overflow=hidden;" parent="xeK9FwHJkOKHolxAsqoF-26" vertex="1">
                    <mxGeometry x="86" width="88" height="33" as="geometry"/>
                </mxCell>
                <mxCell id="xeK9FwHJkOKHolxAsqoF-29" value="コントローラー" style="shape=partialRectangle;html=1;whiteSpace=wrap;connectable=0;fillColor=none;top=0;left=0;bottom=0;right=0;overflow=hidden;" parent="xeK9FwHJkOKHolxAsqoF-26" vertex="1">
                    <mxGeometry x="174" width="86" height="33" as="geometry"/>
                </mxCell>
                <mxCell id="xeK9FwHJkOKHolxAsqoF-30" value="" style="shape=partialRectangle;html=1;whiteSpace=wrap;collapsible=0;dropTarget=0;pointerEvents=0;fillColor=none;top=0;left=0;bottom=0;right=0;points=[[0,0.5],[1,0.5]];portConstraint=eastwest;" parent="xeK9FwHJkOKHolxAsqoF-25" vertex="1">
                    <mxGeometry y="33" width="260" height="32" as="geometry"/>
                </mxCell>
                <mxCell id="xeK9FwHJkOKHolxAsqoF-31" value="右移動" style="shape=partialRectangle;html=1;whiteSpace=wrap;connectable=0;fillColor=none;top=0;left=0;bottom=0;right=0;overflow=hidden;" parent="xeK9FwHJkOKHolxAsqoF-30" vertex="1">
                    <mxGeometry width="86" height="32" as="geometry"/>
                </mxCell>
                <mxCell id="xeK9FwHJkOKHolxAsqoF-32" value="D" style="shape=partialRectangle;html=1;whiteSpace=wrap;connectable=0;fillColor=none;top=0;left=0;bottom=0;right=0;overflow=hidden;" parent="xeK9FwHJkOKHolxAsqoF-30" vertex="1">
                    <mxGeometry x="86" width="88" height="32" as="geometry"/>
                </mxCell>
                <mxCell id="xeK9FwHJkOKHolxAsqoF-33" value="Lスティック右" style="shape=partialRectangle;html=1;whiteSpace=wrap;connectable=0;fillColor=none;top=0;left=0;bottom=0;right=0;overflow=hidden;" parent="xeK9FwHJkOKHolxAsqoF-30" vertex="1">
                    <mxGeometry x="174" width="86" height="32" as="geometry"/>
                </mxCell>
                <mxCell id="xeK9FwHJkOKHolxAsqoF-34" value="" style="shape=partialRectangle;html=1;whiteSpace=wrap;collapsible=0;dropTarget=0;pointerEvents=0;fillColor=none;top=0;left=0;bottom=0;right=0;points=[[0,0.5],[1,0.5]];portConstraint=eastwest;" parent="xeK9FwHJkOKHolxAsqoF-25" vertex="1">
                    <mxGeometry y="65" width="260" height="33" as="geometry"/>
                </mxCell>
                <mxCell id="xeK9FwHJkOKHolxAsqoF-35" value="ジャンプ" style="shape=partialRectangle;html=1;whiteSpace=wrap;connectable=0;fillColor=none;top=0;left=0;bottom=0;right=0;overflow=hidden;" parent="xeK9FwHJkOKHolxAsqoF-34" vertex="1">
                    <mxGeometry width="86" height="33" as="geometry"/>
                </mxCell>
                <mxCell id="xeK9FwHJkOKHolxAsqoF-36" value="Space" style="shape=partialRectangle;html=1;whiteSpace=wrap;connectable=0;fillColor=none;top=0;left=0;bottom=0;right=0;overflow=hidden;" parent="xeK9FwHJkOKHolxAsqoF-34" vertex="1">
                    <mxGeometry x="86" width="88" height="33" as="geometry"/>
                </mxCell>
                <mxCell id="xeK9FwHJkOKHolxAsqoF-37" value="×" style="shape=partialRectangle;html=1;whiteSpace=wrap;connectable=0;fillColor=none;top=0;left=0;bottom=0;right=0;overflow=hidden;" parent="xeK9FwHJkOKHolxAsqoF-34" vertex="1">
                    <mxGeometry x="174" width="86" height="33" as="geometry"/>
                </mxCell>
            </root>
        </mxGraphModel>
    </diagram>
    <diagram id="x0jxjWOw4tR_N2gl1x7q" name="ステージセレクト">
        <mxGraphModel dx="1118" dy="828" grid="1" gridSize="10" guides="1" tooltips="1" connect="1" arrows="1" fold="1" page="1" pageScale="1" pageWidth="827" pageHeight="1169" math="0" shadow="0">
            <root>
                <mxCell id="hxFUsI1PrDXO91a1jrPu-0"/>
                <mxCell id="hxFUsI1PrDXO91a1jrPu-1" parent="hxFUsI1PrDXO91a1jrPu-0"/>
                <mxCell id="hxFUsI1PrDXO91a1jrPu-2" value="ゲーム開始" style="rounded=1;whiteSpace=wrap;html=1;fontSize=12;" parent="hxFUsI1PrDXO91a1jrPu-1" vertex="1">
                    <mxGeometry x="360" y="540" width="120" height="60" as="geometry"/>
                </mxCell>
                <mxCell id="MaAmKDyjEhRg6Q8Drhyq-3" style="edgeStyle=orthogonalEdgeStyle;rounded=0;orthogonalLoop=1;jettySize=auto;html=1;exitX=0.5;exitY=1;exitDx=0;exitDy=0;entryX=0.5;entryY=0;entryDx=0;entryDy=0;fontSize=12;" parent="hxFUsI1PrDXO91a1jrPu-1" source="LtByB-0nww7BzLxQRbjP-0" target="MaAmKDyjEhRg6Q8Drhyq-0" edge="1">
                    <mxGeometry relative="1" as="geometry"/>
                </mxCell>
                <mxCell id="LtByB-0nww7BzLxQRbjP-0" value="ステージセレクト" style="rounded=1;whiteSpace=wrap;html=1;fontSize=12;" parent="hxFUsI1PrDXO91a1jrPu-1" vertex="1">
                    <mxGeometry x="360" y="40" width="120" height="60" as="geometry"/>
                </mxCell>
                <mxCell id="MaAmKDyjEhRg6Q8Drhyq-6" style="edgeStyle=orthogonalEdgeStyle;rounded=0;orthogonalLoop=1;jettySize=auto;html=1;exitX=0.5;exitY=1;exitDx=0;exitDy=0;entryX=0.5;entryY=0;entryDx=0;entryDy=0;fontSize=12;" parent="hxFUsI1PrDXO91a1jrPu-1" source="LtByB-0nww7BzLxQRbjP-1" target="hxFUsI1PrDXO91a1jrPu-2" edge="1">
                    <mxGeometry relative="1" as="geometry"/>
                </mxCell>
                <mxCell id="LtByB-0nww7BzLxQRbjP-1" value="選択" style="rounded=0;whiteSpace=wrap;html=1;fontSize=12;" parent="hxFUsI1PrDXO91a1jrPu-1" vertex="1">
                    <mxGeometry x="360" y="360" width="120" height="60" as="geometry"/>
                </mxCell>
                <mxCell id="MaAmKDyjEhRg6Q8Drhyq-4" style="edgeStyle=orthogonalEdgeStyle;rounded=0;orthogonalLoop=1;jettySize=auto;html=1;exitX=1;exitY=0.5;exitDx=0;exitDy=0;entryX=0.5;entryY=0;entryDx=0;entryDy=0;fontSize=12;" parent="hxFUsI1PrDXO91a1jrPu-1" source="MaAmKDyjEhRg6Q8Drhyq-0" target="MaAmKDyjEhRg6Q8Drhyq-2" edge="1">
                    <mxGeometry relative="1" as="geometry"/>
                </mxCell>
                <mxCell id="MaAmKDyjEhRg6Q8Drhyq-5" style="edgeStyle=orthogonalEdgeStyle;rounded=0;orthogonalLoop=1;jettySize=auto;html=1;exitX=0.5;exitY=1;exitDx=0;exitDy=0;fontSize=12;" parent="hxFUsI1PrDXO91a1jrPu-1" source="MaAmKDyjEhRg6Q8Drhyq-0" target="LtByB-0nww7BzLxQRbjP-1" edge="1">
                    <mxGeometry relative="1" as="geometry"/>
                </mxCell>
                <mxCell id="MaAmKDyjEhRg6Q8Drhyq-0" value="" style="rhombus;whiteSpace=wrap;html=1;strokeColor=#f0f0f0;fontSize=12;align=left;" parent="hxFUsI1PrDXO91a1jrPu-1" vertex="1">
                    <mxGeometry x="380" y="160" width="80" height="80" as="geometry"/>
                </mxCell>
                <mxCell id="MaAmKDyjEhRg6Q8Drhyq-7" style="edgeStyle=orthogonalEdgeStyle;rounded=0;orthogonalLoop=1;jettySize=auto;html=1;exitX=0.5;exitY=1;exitDx=0;exitDy=0;fontSize=12;entryX=0.5;entryY=0;entryDx=0;entryDy=0;" parent="hxFUsI1PrDXO91a1jrPu-1" source="MaAmKDyjEhRg6Q8Drhyq-2" target="MaAmKDyjEhRg6Q8Drhyq-8" edge="1">
                    <mxGeometry relative="1" as="geometry">
                        <mxPoint x="580" y="490" as="targetPoint"/>
                    </mxGeometry>
                </mxCell>
                <mxCell id="MaAmKDyjEhRg6Q8Drhyq-2" value="戻る" style="rounded=0;whiteSpace=wrap;html=1;strokeColor=#f0f0f0;fontSize=12;align=center;" parent="hxFUsI1PrDXO91a1jrPu-1" vertex="1">
                    <mxGeometry x="520" y="360" width="120" height="60" as="geometry"/>
                </mxCell>
                <mxCell id="MaAmKDyjEhRg6Q8Drhyq-8" value="タイトル" style="rounded=1;whiteSpace=wrap;html=1;strokeColor=#f0f0f0;fillColor=#2a2a2a;fontSize=12;align=center;" parent="hxFUsI1PrDXO91a1jrPu-1" vertex="1">
                    <mxGeometry x="520" y="540" width="120" height="60" as="geometry"/>
                </mxCell>
            </root>
        </mxGraphModel>
    </diagram>
    <diagram id="g4jTVuSflQKeAvzpOW5a" name="ゲーム本編">
        <mxGraphModel dx="1118" dy="828" grid="1" gridSize="10" guides="1" tooltips="1" connect="1" arrows="1" fold="1" page="1" pageScale="1" pageWidth="827" pageHeight="1169" math="0" shadow="0">
            <root>
                <mxCell id="EV-zGK_peEdf_ObqjnVQ-0"/>
                <mxCell id="EV-zGK_peEdf_ObqjnVQ-1" parent="EV-zGK_peEdf_ObqjnVQ-0"/>
                <mxCell id="GqQOvLLpaJCF3pljP2aV-1" style="edgeStyle=orthogonalEdgeStyle;rounded=0;orthogonalLoop=1;jettySize=auto;html=1;exitX=0.5;exitY=1;exitDx=0;exitDy=0;entryX=0.5;entryY=0;entryDx=0;entryDy=0;fontSize=12;" parent="EV-zGK_peEdf_ObqjnVQ-1" source="EV-zGK_peEdf_ObqjnVQ-2" target="HIDRYtP-PDvebhkHOv2Z-0" edge="1">
                    <mxGeometry relative="1" as="geometry"/>
                </mxCell>
                <mxCell id="EV-zGK_peEdf_ObqjnVQ-2" value="ゲーム開始" style="rounded=1;whiteSpace=wrap;html=1;strokeColor=#f0f0f0;fillColor=#2a2a2a;fontSize=12;align=center;" parent="EV-zGK_peEdf_ObqjnVQ-1" vertex="1">
                    <mxGeometry x="324" y="90" width="120" height="60" as="geometry"/>
                </mxCell>
                <mxCell id="GqQOvLLpaJCF3pljP2aV-2" style="edgeStyle=orthogonalEdgeStyle;rounded=0;orthogonalLoop=1;jettySize=auto;html=1;exitX=0.5;exitY=1;exitDx=0;exitDy=0;entryX=0.5;entryY=0;entryDx=0;entryDy=0;fontSize=12;" parent="EV-zGK_peEdf_ObqjnVQ-1" source="HIDRYtP-PDvebhkHOv2Z-0" target="HIDRYtP-PDvebhkHOv2Z-2" edge="1">
                    <mxGeometry relative="1" as="geometry"/>
                </mxCell>
                <mxCell id="HIDRYtP-PDvebhkHOv2Z-0" value="ステージ読み込み" style="shape=parallelogram;perimeter=parallelogramPerimeter;whiteSpace=wrap;html=1;fixedSize=1;strokeColor=#f0f0f0;fillColor=#2a2a2a;fontSize=12;align=center;" parent="EV-zGK_peEdf_ObqjnVQ-1" vertex="1">
                    <mxGeometry x="314" y="210" width="140" height="60" as="geometry"/>
                </mxCell>
                <mxCell id="GqQOvLLpaJCF3pljP2aV-3" style="edgeStyle=orthogonalEdgeStyle;rounded=0;orthogonalLoop=1;jettySize=auto;html=1;exitX=0.5;exitY=1;exitDx=0;exitDy=0;entryX=0.5;entryY=0;entryDx=0;entryDy=0;fontSize=12;" parent="EV-zGK_peEdf_ObqjnVQ-1" source="HIDRYtP-PDvebhkHOv2Z-2" target="HIDRYtP-PDvebhkHOv2Z-6" edge="1">
                    <mxGeometry relative="1" as="geometry"/>
                </mxCell>
                <mxCell id="HIDRYtP-PDvebhkHOv2Z-2" value="各オブジェクト更新" style="rounded=0;whiteSpace=wrap;html=1;strokeColor=#f0f0f0;fillColor=#2a2a2a;fontSize=12;align=center;" parent="EV-zGK_peEdf_ObqjnVQ-1" vertex="1">
                    <mxGeometry x="324" y="340" width="120" height="60" as="geometry"/>
                </mxCell>
                <mxCell id="GqQOvLLpaJCF3pljP2aV-4" style="edgeStyle=orthogonalEdgeStyle;rounded=0;orthogonalLoop=1;jettySize=auto;html=1;exitX=0.5;exitY=1;exitDx=0;exitDy=0;fontSize=12;" parent="EV-zGK_peEdf_ObqjnVQ-1" source="HIDRYtP-PDvebhkHOv2Z-6" edge="1">
                    <mxGeometry relative="1" as="geometry">
                        <mxPoint x="384" y="300" as="targetPoint"/>
                        <Array as="points">
                            <mxPoint x="384" y="650"/>
                            <mxPoint x="514" y="650"/>
                            <mxPoint x="514" y="300"/>
                        </Array>
                    </mxGeometry>
                </mxCell>
                <mxCell id="HIDRYtP-PDvebhkHOv2Z-6" value="Action" style="rounded=0;whiteSpace=wrap;html=1;strokeColor=#f0f0f0;fillColor=#2a2a2a;fontSize=12;align=center;" parent="EV-zGK_peEdf_ObqjnVQ-1" vertex="1">
                    <mxGeometry x="324" y="480" width="120" height="60" as="geometry"/>
                </mxCell>
            </root>
        </mxGraphModel>
    </diagram>
    <diagram id="aF5p0ZWDccav6phYdpyA" name="プレイヤー">
        <mxGraphModel dx="1118" dy="828" grid="1" gridSize="10" guides="1" tooltips="1" connect="1" arrows="1" fold="1" page="1" pageScale="1" pageWidth="827" pageHeight="1169" math="0" shadow="0">
            <root>
                <mxCell id="dSjjns4JnwNU681PHRvP-0"/>
                <mxCell id="dSjjns4JnwNU681PHRvP-1" parent="dSjjns4JnwNU681PHRvP-0"/>
                <mxCell id="IHAeXLp17ZK29_JgncoL-0" value="プレイヤー" style="rounded=1;whiteSpace=wrap;html=1;" vertex="1" parent="dSjjns4JnwNU681PHRvP-1">
                    <mxGeometry x="294" y="60" width="120" height="60" as="geometry"/>
                </mxCell>
                <mxCell id="IHAeXLp17ZK29_JgncoL-5" style="rounded=0;orthogonalLoop=1;jettySize=auto;html=1;exitX=0.5;exitY=1;exitDx=0;exitDy=0;entryX=0.5;entryY=0;entryDx=0;entryDy=0;endArrow=none;endFill=0;" edge="1" parent="dSjjns4JnwNU681PHRvP-1" source="IHAeXLp17ZK29_JgncoL-1" target="IHAeXLp17ZK29_JgncoL-4">
                    <mxGeometry relative="1" as="geometry"/>
                </mxCell>
                <mxCell id="IHAeXLp17ZK29_JgncoL-6" style="edgeStyle=none;rounded=0;orthogonalLoop=1;jettySize=auto;html=1;exitX=0.5;exitY=1;exitDx=0;exitDy=0;entryX=0.5;entryY=0;entryDx=0;entryDy=0;endArrow=none;endFill=0;" edge="1" parent="dSjjns4JnwNU681PHRvP-1" source="IHAeXLp17ZK29_JgncoL-1" target="IHAeXLp17ZK29_JgncoL-3">
                    <mxGeometry relative="1" as="geometry"/>
                </mxCell>
                <mxCell id="IHAeXLp17ZK29_JgncoL-7" style="edgeStyle=none;rounded=0;orthogonalLoop=1;jettySize=auto;html=1;exitX=0.5;exitY=1;exitDx=0;exitDy=0;entryX=0.5;entryY=0;entryDx=0;entryDy=0;endArrow=none;endFill=0;" edge="1" parent="dSjjns4JnwNU681PHRvP-1" source="IHAeXLp17ZK29_JgncoL-1" target="IHAeXLp17ZK29_JgncoL-2">
                    <mxGeometry relative="1" as="geometry"/>
                </mxCell>
                <mxCell id="IHAeXLp17ZK29_JgncoL-12" style="edgeStyle=none;rounded=0;orthogonalLoop=1;jettySize=auto;html=1;exitX=0.5;exitY=0;exitDx=0;exitDy=0;entryX=0.5;entryY=1;entryDx=0;entryDy=0;endArrow=none;endFill=0;" edge="1" parent="dSjjns4JnwNU681PHRvP-1" source="IHAeXLp17ZK29_JgncoL-1" target="IHAeXLp17ZK29_JgncoL-0">
                    <mxGeometry relative="1" as="geometry"/>
                </mxCell>
                <mxCell id="IHAeXLp17ZK29_JgncoL-1" value="SoundPower" style="rounded=0;whiteSpace=wrap;html=1;" vertex="1" parent="dSjjns4JnwNU681PHRvP-1">
                    <mxGeometry x="460" y="350" width="120" height="60" as="geometry"/>
                </mxCell>
                <mxCell id="IHAeXLp17ZK29_JgncoL-2" value="Script" style="rounded=0;whiteSpace=wrap;html=1;" vertex="1" parent="dSjjns4JnwNU681PHRvP-1">
                    <mxGeometry x="620" y="490" width="120" height="60" as="geometry"/>
                </mxCell>
                <mxCell id="IHAeXLp17ZK29_JgncoL-3" value="Effect" style="rounded=0;whiteSpace=wrap;html=1;" vertex="1" parent="dSjjns4JnwNU681PHRvP-1">
                    <mxGeometry x="460" y="490" width="120" height="60" as="geometry"/>
                </mxCell>
                <mxCell id="IHAeXLp17ZK29_JgncoL-4" value="SoundMixer" style="rounded=0;whiteSpace=wrap;html=1;" vertex="1" parent="dSjjns4JnwNU681PHRvP-1">
                    <mxGeometry x="300" y="490" width="120" height="60" as="geometry"/>
                </mxCell>
                <mxCell id="IHAeXLp17ZK29_JgncoL-11" style="edgeStyle=none;rounded=0;orthogonalLoop=1;jettySize=auto;html=1;exitX=0.5;exitY=0;exitDx=0;exitDy=0;entryX=0.5;entryY=1;entryDx=0;entryDy=0;endArrow=none;endFill=0;" edge="1" parent="dSjjns4JnwNU681PHRvP-1" source="IHAeXLp17ZK29_JgncoL-8" target="IHAeXLp17ZK29_JgncoL-0">
                    <mxGeometry relative="1" as="geometry"/>
                </mxCell>
                <mxCell id="IHAeXLp17ZK29_JgncoL-8" value="Rigidbody" style="rounded=0;whiteSpace=wrap;html=1;" vertex="1" parent="dSjjns4JnwNU681PHRvP-1">
                    <mxGeometry x="294" y="350" width="120" height="60" as="geometry"/>
                </mxCell>
                <mxCell id="IHAeXLp17ZK29_JgncoL-10" style="edgeStyle=none;rounded=0;orthogonalLoop=1;jettySize=auto;html=1;exitX=0.5;exitY=0;exitDx=0;exitDy=0;entryX=0.5;entryY=1;entryDx=0;entryDy=0;endArrow=none;endFill=0;" edge="1" parent="dSjjns4JnwNU681PHRvP-1" source="IHAeXLp17ZK29_JgncoL-9" target="IHAeXLp17ZK29_JgncoL-0">
                    <mxGeometry relative="1" as="geometry"/>
                </mxCell>
                <mxCell id="IHAeXLp17ZK29_JgncoL-9" value="速度ベクトル" style="rounded=0;whiteSpace=wrap;html=1;" vertex="1" parent="dSjjns4JnwNU681PHRvP-1">
                    <mxGeometry x="130" y="350" width="120" height="60" as="geometry"/>
                </mxCell>
                <mxCell id="IHAeXLp17ZK29_JgncoL-14" style="edgeStyle=none;rounded=0;orthogonalLoop=1;jettySize=auto;html=1;exitX=0.5;exitY=0;exitDx=0;exitDy=0;entryX=0.5;entryY=1;entryDx=0;entryDy=0;endArrow=classic;endFill=1;" edge="1" parent="dSjjns4JnwNU681PHRvP-1" source="IHAeXLp17ZK29_JgncoL-13" target="IHAeXLp17ZK29_JgncoL-9">
                    <mxGeometry relative="1" as="geometry"/>
                </mxCell>
                <mxCell id="IHAeXLp17ZK29_JgncoL-13" value="Input System" style="rounded=0;whiteSpace=wrap;html=1;" vertex="1" parent="dSjjns4JnwNU681PHRvP-1">
                    <mxGeometry x="130" y="490" width="120" height="60" as="geometry"/>
                </mxCell>
                <mxCell id="IHAeXLp17ZK29_JgncoL-19" style="edgeStyle=none;rounded=0;orthogonalLoop=1;jettySize=auto;html=1;exitX=0.5;exitY=0;exitDx=0;exitDy=0;entryX=0.5;entryY=1;entryDx=0;entryDy=0;endArrow=classic;endFill=1;startArrow=classic;startFill=1;" edge="1" parent="dSjjns4JnwNU681PHRvP-1" source="IHAeXLp17ZK29_JgncoL-15" target="IHAeXLp17ZK29_JgncoL-17">
                    <mxGeometry relative="1" as="geometry"/>
                </mxCell>
                <mxCell id="IHAeXLp17ZK29_JgncoL-15" value="ステージオブジェクト" style="rounded=1;whiteSpace=wrap;html=1;" vertex="1" parent="dSjjns4JnwNU681PHRvP-1">
                    <mxGeometry x="615" y="730" width="130" height="60" as="geometry"/>
                </mxCell>
                <mxCell id="IHAeXLp17ZK29_JgncoL-20" style="edgeStyle=none;rounded=0;orthogonalLoop=1;jettySize=auto;html=1;exitX=0.5;exitY=0;exitDx=0;exitDy=0;entryX=0.5;entryY=1;entryDx=0;entryDy=0;startArrow=none;startFill=0;endArrow=classic;endFill=1;" edge="1" parent="dSjjns4JnwNU681PHRvP-1" source="IHAeXLp17ZK29_JgncoL-17" target="IHAeXLp17ZK29_JgncoL-2">
                    <mxGeometry relative="1" as="geometry"/>
                </mxCell>
                <mxCell id="IHAeXLp17ZK29_JgncoL-17" value="タグ検索" style="rounded=0;whiteSpace=wrap;html=1;" vertex="1" parent="dSjjns4JnwNU681PHRvP-1">
                    <mxGeometry x="620" y="590" width="120" height="60" as="geometry"/>
                </mxCell>
                <mxCell id="IHAeXLp17ZK29_JgncoL-18" style="edgeStyle=none;rounded=0;orthogonalLoop=1;jettySize=auto;html=1;exitX=0.5;exitY=0;exitDx=0;exitDy=0;endArrow=classic;endFill=1;" edge="1" parent="dSjjns4JnwNU681PHRvP-1" source="IHAeXLp17ZK29_JgncoL-15" target="IHAeXLp17ZK29_JgncoL-15">
                    <mxGeometry relative="1" as="geometry"/>
                </mxCell>
            </root>
        </mxGraphModel>
    </diagram>
    <diagram id="aIs26gdcM5EEb9Uw0OvQ" name="SoundPowerFire">
        <mxGraphModel dx="1118" dy="828" grid="1" gridSize="10" guides="1" tooltips="1" connect="1" arrows="1" fold="1" page="1" pageScale="1" pageWidth="827" pageHeight="1169" math="0" shadow="0">
            <root>
                <mxCell id="8Zr7W4lBVwaXQftd0MW6-0"/>
                <mxCell id="8Zr7W4lBVwaXQftd0MW6-1" parent="8Zr7W4lBVwaXQftd0MW6-0"/>
                <mxCell id="U0N-kUZHlA4V9yD-kO9Y-8" style="edgeStyle=none;rounded=0;orthogonalLoop=1;jettySize=auto;html=1;exitX=0.5;exitY=1;exitDx=0;exitDy=0;entryX=0.5;entryY=0;entryDx=0;entryDy=0;startArrow=none;startFill=0;endArrow=classic;endFill=1;" edge="1" parent="8Zr7W4lBVwaXQftd0MW6-1" source="8Zr7W4lBVwaXQftd0MW6-2" target="U0N-kUZHlA4V9yD-kO9Y-2">
                    <mxGeometry relative="1" as="geometry"/>
                </mxCell>
                <mxCell id="U0N-kUZHlA4V9yD-kO9Y-9" style="edgeStyle=none;rounded=0;orthogonalLoop=1;jettySize=auto;html=1;exitX=0.5;exitY=1;exitDx=0;exitDy=0;entryX=0.5;entryY=0;entryDx=0;entryDy=0;startArrow=none;startFill=0;endArrow=classic;endFill=1;" edge="1" parent="8Zr7W4lBVwaXQftd0MW6-1" source="8Zr7W4lBVwaXQftd0MW6-2" target="U0N-kUZHlA4V9yD-kO9Y-1">
                    <mxGeometry relative="1" as="geometry"/>
                </mxCell>
                <mxCell id="U0N-kUZHlA4V9yD-kO9Y-10" style="edgeStyle=none;rounded=0;orthogonalLoop=1;jettySize=auto;html=1;exitX=0.5;exitY=1;exitDx=0;exitDy=0;entryX=0.5;entryY=0;entryDx=0;entryDy=0;startArrow=none;startFill=0;endArrow=classic;endFill=1;" edge="1" parent="8Zr7W4lBVwaXQftd0MW6-1" source="8Zr7W4lBVwaXQftd0MW6-2" target="U0N-kUZHlA4V9yD-kO9Y-0">
                    <mxGeometry relative="1" as="geometry"/>
                </mxCell>
                <mxCell id="8Zr7W4lBVwaXQftd0MW6-2" value="SoundPowerFire" style="rounded=1;whiteSpace=wrap;html=1;" vertex="1" parent="8Zr7W4lBVwaXQftd0MW6-1">
                    <mxGeometry x="357.5" y="50" width="120" height="60" as="geometry"/>
                </mxCell>
                <mxCell id="U0N-kUZHlA4V9yD-kO9Y-17" style="edgeStyle=none;rounded=0;orthogonalLoop=1;jettySize=auto;html=1;exitX=0.5;exitY=1;exitDx=0;exitDy=0;entryX=0.5;entryY=0;entryDx=0;entryDy=0;startArrow=none;startFill=0;endArrow=classic;endFill=1;" edge="1" parent="8Zr7W4lBVwaXQftd0MW6-1" source="U0N-kUZHlA4V9yD-kO9Y-0" target="U0N-kUZHlA4V9yD-kO9Y-14">
                    <mxGeometry relative="1" as="geometry"/>
                </mxCell>
                <mxCell id="U0N-kUZHlA4V9yD-kO9Y-0" value="Script" style="rounded=0;whiteSpace=wrap;html=1;" vertex="1" parent="8Zr7W4lBVwaXQftd0MW6-1">
                    <mxGeometry x="517.5" y="180" width="120" height="60" as="geometry"/>
                </mxCell>
                <mxCell id="U0N-kUZHlA4V9yD-kO9Y-1" value="Effect" style="rounded=0;whiteSpace=wrap;html=1;" vertex="1" parent="8Zr7W4lBVwaXQftd0MW6-1">
                    <mxGeometry x="357.5" y="180" width="120" height="60" as="geometry"/>
                </mxCell>
                <mxCell id="U0N-kUZHlA4V9yD-kO9Y-2" value="SoundMixer" style="rounded=0;whiteSpace=wrap;html=1;" vertex="1" parent="8Zr7W4lBVwaXQftd0MW6-1">
                    <mxGeometry x="197.5" y="180" width="120" height="60" as="geometry"/>
                </mxCell>
                <mxCell id="U0N-kUZHlA4V9yD-kO9Y-12" style="edgeStyle=none;rounded=0;orthogonalLoop=1;jettySize=auto;html=1;exitX=0;exitY=0.5;exitDx=0;exitDy=0;entryX=1;entryY=0.5;entryDx=0;entryDy=0;startArrow=none;startFill=0;endArrow=classic;endFill=1;" edge="1" parent="8Zr7W4lBVwaXQftd0MW6-1" source="U0N-kUZHlA4V9yD-kO9Y-4" target="U0N-kUZHlA4V9yD-kO9Y-6">
                    <mxGeometry relative="1" as="geometry"/>
                </mxCell>
                <mxCell id="U0N-kUZHlA4V9yD-kO9Y-4" value="ステージオブジェクト" style="rounded=1;whiteSpace=wrap;html=1;" vertex="1" parent="8Zr7W4lBVwaXQftd0MW6-1">
                    <mxGeometry x="960" y="290" width="130" height="60" as="geometry"/>
                </mxCell>
                <mxCell id="U0N-kUZHlA4V9yD-kO9Y-16" style="edgeStyle=none;rounded=0;orthogonalLoop=1;jettySize=auto;html=1;exitX=0;exitY=0.5;exitDx=0;exitDy=0;startArrow=none;startFill=0;endArrow=classic;endFill=1;" edge="1" parent="8Zr7W4lBVwaXQftd0MW6-1" source="U0N-kUZHlA4V9yD-kO9Y-6">
                    <mxGeometry relative="1" as="geometry">
                        <mxPoint x="640" y="320" as="targetPoint"/>
                    </mxGeometry>
                </mxCell>
                <mxCell id="U0N-kUZHlA4V9yD-kO9Y-6" value="Firedタグ検索" style="rounded=0;whiteSpace=wrap;html=1;" vertex="1" parent="8Zr7W4lBVwaXQftd0MW6-1">
                    <mxGeometry x="760" y="290" width="120" height="60" as="geometry"/>
                </mxCell>
                <mxCell id="U0N-kUZHlA4V9yD-kO9Y-7" style="edgeStyle=none;rounded=0;orthogonalLoop=1;jettySize=auto;html=1;exitX=0.5;exitY=0;exitDx=0;exitDy=0;endArrow=classic;endFill=1;" edge="1" parent="8Zr7W4lBVwaXQftd0MW6-1" source="U0N-kUZHlA4V9yD-kO9Y-4" target="U0N-kUZHlA4V9yD-kO9Y-4">
                    <mxGeometry relative="1" as="geometry"/>
                </mxCell>
                <mxCell id="U0N-kUZHlA4V9yD-kO9Y-23" style="edgeStyle=orthogonalEdgeStyle;rounded=0;orthogonalLoop=1;jettySize=auto;html=1;exitX=1;exitY=0.5;exitDx=0;exitDy=0;startArrow=none;startFill=0;endArrow=classic;endFill=1;entryX=0;entryY=0.5;entryDx=0;entryDy=0;" edge="1" parent="8Zr7W4lBVwaXQftd0MW6-1" source="U0N-kUZHlA4V9yD-kO9Y-13" target="U0N-kUZHlA4V9yD-kO9Y-13">
                    <mxGeometry relative="1" as="geometry">
                        <mxPoint x="490" y="680" as="targetPoint"/>
                        <Array as="points">
                            <mxPoint x="880" y="450"/>
                            <mxPoint x="880" y="1020"/>
                            <mxPoint x="430" y="1020"/>
                            <mxPoint x="430" y="450"/>
                        </Array>
                    </mxGeometry>
                </mxCell>
                <mxCell id="WUJmQBTHBc24h5Oq1IQq-0" style="edgeStyle=orthogonalEdgeStyle;rounded=0;orthogonalLoop=1;jettySize=auto;html=1;exitX=0.5;exitY=1;exitDx=0;exitDy=0;entryX=0.5;entryY=0;entryDx=0;entryDy=0;startArrow=none;startFill=0;endArrow=classic;endFill=1;" edge="1" parent="8Zr7W4lBVwaXQftd0MW6-1" source="U0N-kUZHlA4V9yD-kO9Y-13" target="WpoRrvWsi2_-ZfS2msi7-6">
                    <mxGeometry relative="1" as="geometry"/>
                </mxCell>
                <mxCell id="U0N-kUZHlA4V9yD-kO9Y-13" value="適用範囲内にある？" style="rhombus;whiteSpace=wrap;html=1;" vertex="1" parent="8Zr7W4lBVwaXQftd0MW6-1">
                    <mxGeometry x="506.25" y="410" width="142.5" height="80" as="geometry"/>
                </mxCell>
                <mxCell id="F5p88OuNWPqJfPIvGYf3-0" style="edgeStyle=orthogonalEdgeStyle;rounded=0;orthogonalLoop=1;jettySize=auto;html=1;exitX=0.5;exitY=1;exitDx=0;exitDy=0;entryX=0.5;entryY=0;entryDx=0;entryDy=0;startArrow=none;startFill=0;endArrow=classic;endFill=1;" edge="1" parent="8Zr7W4lBVwaXQftd0MW6-1" source="U0N-kUZHlA4V9yD-kO9Y-14" target="U0N-kUZHlA4V9yD-kO9Y-13">
                    <mxGeometry relative="1" as="geometry"/>
                </mxCell>
                <mxCell id="U0N-kUZHlA4V9yD-kO9Y-14" value="タグを含むオブジェクト配列取得" style="rounded=0;whiteSpace=wrap;html=1;" vertex="1" parent="8Zr7W4lBVwaXQftd0MW6-1">
                    <mxGeometry x="518" y="290" width="120" height="60" as="geometry"/>
                </mxCell>
                <mxCell id="U0N-kUZHlA4V9yD-kO9Y-22" style="edgeStyle=orthogonalEdgeStyle;rounded=0;orthogonalLoop=1;jettySize=auto;html=1;exitX=0.5;exitY=1;exitDx=0;exitDy=0;startArrow=none;startFill=0;endArrow=classic;endFill=1;entryX=0;entryY=0.5;entryDx=0;entryDy=0;" edge="1" parent="8Zr7W4lBVwaXQftd0MW6-1" source="U0N-kUZHlA4V9yD-kO9Y-20" target="U0N-kUZHlA4V9yD-kO9Y-13">
                    <mxGeometry relative="1" as="geometry">
                        <mxPoint x="570" y="930" as="targetPoint"/>
                        <Array as="points">
                            <mxPoint x="578" y="1020"/>
                            <mxPoint x="430" y="1020"/>
                            <mxPoint x="430" y="450"/>
                        </Array>
                    </mxGeometry>
                </mxCell>
                <mxCell id="U0N-kUZHlA4V9yD-kO9Y-20" value="オブジェクトの常時スクリプトを実行" style="rounded=0;whiteSpace=wrap;html=1;" vertex="1" parent="8Zr7W4lBVwaXQftd0MW6-1">
                    <mxGeometry x="517.5" y="850" width="120" height="60" as="geometry"/>
                </mxCell>
                <mxCell id="WpoRrvWsi2_-ZfS2msi7-12" style="edgeStyle=orthogonalEdgeStyle;rounded=0;orthogonalLoop=1;jettySize=auto;html=1;exitX=0.5;exitY=1;exitDx=0;exitDy=0;entryX=0.5;entryY=0;entryDx=0;entryDy=0;startArrow=none;startFill=0;endArrow=classic;endFill=1;" edge="1" parent="8Zr7W4lBVwaXQftd0MW6-1" source="WpoRrvWsi2_-ZfS2msi7-6" target="U0N-kUZHlA4V9yD-kO9Y-20">
                    <mxGeometry relative="1" as="geometry"/>
                </mxCell>
                <mxCell id="WpoRrvWsi2_-ZfS2msi7-6" value="オブジェクトのスクリプト実行" style="rounded=0;whiteSpace=wrap;html=1;" vertex="1" parent="8Zr7W4lBVwaXQftd0MW6-1">
                    <mxGeometry x="518" y="660" width="120" height="60" as="geometry"/>
                </mxCell>
            </root>
        </mxGraphModel>
    </diagram>
    <diagram id="RUgrPxXqzTKwTZHdjvfm" name="Firedオブジェクト">
        <mxGraphModel dx="1118" dy="828" grid="1" gridSize="10" guides="1" tooltips="1" connect="1" arrows="1" fold="1" page="1" pageScale="1" pageWidth="827" pageHeight="1169" math="0" shadow="0">
            <root>
                <mxCell id="GLYqAjuNMtgstDjASy-6-0"/>
                <mxCell id="GLYqAjuNMtgstDjASy-6-1" parent="GLYqAjuNMtgstDjASy-6-0"/>
                <mxCell id="_DNNPBdsLXVvUUD2MulV-11" style="edgeStyle=orthogonalEdgeStyle;rounded=0;orthogonalLoop=1;jettySize=auto;html=1;exitX=0.5;exitY=1;exitDx=0;exitDy=0;entryX=0.5;entryY=0;entryDx=0;entryDy=0;startArrow=none;startFill=0;endArrow=classic;endFill=1;" edge="1" parent="GLYqAjuNMtgstDjASy-6-1" source="GLYqAjuNMtgstDjASy-6-2" target="_DNNPBdsLXVvUUD2MulV-2">
                    <mxGeometry relative="1" as="geometry"/>
                </mxCell>
                <mxCell id="GLYqAjuNMtgstDjASy-6-2" value="Firedオブジェクト" style="rounded=1;whiteSpace=wrap;html=1;" vertex="1" parent="GLYqAjuNMtgstDjASy-6-1">
                    <mxGeometry x="370" y="110" width="120" height="60" as="geometry"/>
                </mxCell>
                <mxCell id="Uc7_NXfSTI6Ex5To0u7a-1" value="燃える" style="rounded=0;whiteSpace=wrap;html=1;" vertex="1" parent="GLYqAjuNMtgstDjASy-6-1">
                    <mxGeometry x="750" y="600" width="120" height="60" as="geometry"/>
                </mxCell>
                <mxCell id="Uc7_NXfSTI6Ex5To0u7a-2" value="プロト：赤くなる" style="rounded=0;whiteSpace=wrap;html=1;" vertex="1" parent="GLYqAjuNMtgstDjASy-6-1">
                    <mxGeometry x="920" y="600" width="120" height="60" as="geometry"/>
                </mxCell>
                <mxCell id="Uc7_NXfSTI6Ex5To0u7a-6" style="edgeStyle=orthogonalEdgeStyle;rounded=0;orthogonalLoop=1;jettySize=auto;html=1;exitX=0.5;exitY=1;exitDx=0;exitDy=0;entryX=0.5;entryY=0;entryDx=0;entryDy=0;startArrow=none;startFill=0;endArrow=classic;endFill=1;" edge="1" parent="GLYqAjuNMtgstDjASy-6-1" source="Uc7_NXfSTI6Ex5To0u7a-3" target="Uc7_NXfSTI6Ex5To0u7a-1">
                    <mxGeometry relative="1" as="geometry"/>
                </mxCell>
                <mxCell id="Uc7_NXfSTI6Ex5To0u7a-7" style="edgeStyle=orthogonalEdgeStyle;rounded=0;orthogonalLoop=1;jettySize=auto;html=1;exitX=1;exitY=0.5;exitDx=0;exitDy=0;entryX=0.5;entryY=0;entryDx=0;entryDy=0;startArrow=none;startFill=0;endArrow=classic;endFill=1;" edge="1" parent="GLYqAjuNMtgstDjASy-6-1" source="Uc7_NXfSTI6Ex5To0u7a-3" target="Uc7_NXfSTI6Ex5To0u7a-2">
                    <mxGeometry relative="1" as="geometry"/>
                </mxCell>
                <mxCell id="Uc7_NXfSTI6Ex5To0u7a-3" value="可燃？" style="rhombus;whiteSpace=wrap;html=1;" vertex="1" parent="GLYqAjuNMtgstDjASy-6-1">
                    <mxGeometry x="770" y="440" width="80" height="80" as="geometry"/>
                </mxCell>
                <mxCell id="Uc7_NXfSTI6Ex5To0u7a-4" value="true" style="text;html=1;strokeColor=none;fillColor=none;align=center;verticalAlign=middle;whiteSpace=wrap;rounded=0;" vertex="1" parent="GLYqAjuNMtgstDjASy-6-1">
                    <mxGeometry x="750" y="520" width="40" height="20" as="geometry"/>
                </mxCell>
                <mxCell id="Uc7_NXfSTI6Ex5To0u7a-5" value="false" style="text;html=1;strokeColor=none;fillColor=none;align=center;verticalAlign=middle;whiteSpace=wrap;rounded=0;" vertex="1" parent="GLYqAjuNMtgstDjASy-6-1">
                    <mxGeometry x="850" y="490" width="40" height="20" as="geometry"/>
                </mxCell>
                <mxCell id="_DNNPBdsLXVvUUD2MulV-12" style="edgeStyle=orthogonalEdgeStyle;rounded=0;orthogonalLoop=1;jettySize=auto;html=1;exitX=0.5;exitY=1;exitDx=0;exitDy=0;entryX=0.5;entryY=0;entryDx=0;entryDy=0;startArrow=none;startFill=0;endArrow=classic;endFill=1;" edge="1" parent="GLYqAjuNMtgstDjASy-6-1" source="_DNNPBdsLXVvUUD2MulV-2" target="_DNNPBdsLXVvUUD2MulV-8">
                    <mxGeometry relative="1" as="geometry"/>
                </mxCell>
                <mxCell id="_DNNPBdsLXVvUUD2MulV-13" style="edgeStyle=orthogonalEdgeStyle;rounded=0;orthogonalLoop=1;jettySize=auto;html=1;exitX=1;exitY=0.5;exitDx=0;exitDy=0;entryX=0.5;entryY=0;entryDx=0;entryDy=0;startArrow=none;startFill=0;endArrow=classic;endFill=1;" edge="1" parent="GLYqAjuNMtgstDjASy-6-1" source="_DNNPBdsLXVvUUD2MulV-2" target="Uc7_NXfSTI6Ex5To0u7a-3">
                    <mxGeometry relative="1" as="geometry"/>
                </mxCell>
                <mxCell id="_DNNPBdsLXVvUUD2MulV-2" value="能力発動中？" style="rhombus;whiteSpace=wrap;html=1;" vertex="1" parent="GLYqAjuNMtgstDjASy-6-1">
                    <mxGeometry x="385" y="230" width="90" height="80" as="geometry"/>
                </mxCell>
                <mxCell id="_DNNPBdsLXVvUUD2MulV-4" value="燃え続ける" style="rounded=0;whiteSpace=wrap;html=1;" vertex="1" parent="GLYqAjuNMtgstDjASy-6-1">
                    <mxGeometry x="370" y="600" width="120" height="60" as="geometry"/>
                </mxCell>
                <mxCell id="_DNNPBdsLXVvUUD2MulV-17" style="edgeStyle=orthogonalEdgeStyle;rounded=0;orthogonalLoop=1;jettySize=auto;html=1;exitX=0.5;exitY=1;exitDx=0;exitDy=0;entryX=0.5;entryY=0;entryDx=0;entryDy=0;startArrow=none;startFill=0;endArrow=classic;endFill=1;" edge="1" parent="GLYqAjuNMtgstDjASy-6-1" source="_DNNPBdsLXVvUUD2MulV-5" target="_DNNPBdsLXVvUUD2MulV-16">
                    <mxGeometry relative="1" as="geometry"/>
                </mxCell>
                <mxCell id="_DNNPBdsLXVvUUD2MulV-5" value="プロト：冷めていく" style="rounded=0;whiteSpace=wrap;html=1;" vertex="1" parent="GLYqAjuNMtgstDjASy-6-1">
                    <mxGeometry x="540" y="600" width="120" height="60" as="geometry"/>
                </mxCell>
                <mxCell id="_DNNPBdsLXVvUUD2MulV-6" style="edgeStyle=orthogonalEdgeStyle;rounded=0;orthogonalLoop=1;jettySize=auto;html=1;exitX=0.5;exitY=1;exitDx=0;exitDy=0;entryX=0.5;entryY=0;entryDx=0;entryDy=0;startArrow=none;startFill=0;endArrow=classic;endFill=1;" edge="1" parent="GLYqAjuNMtgstDjASy-6-1" source="_DNNPBdsLXVvUUD2MulV-8" target="_DNNPBdsLXVvUUD2MulV-4">
                    <mxGeometry relative="1" as="geometry"/>
                </mxCell>
                <mxCell id="_DNNPBdsLXVvUUD2MulV-7" style="edgeStyle=orthogonalEdgeStyle;rounded=0;orthogonalLoop=1;jettySize=auto;html=1;exitX=1;exitY=0.5;exitDx=0;exitDy=0;entryX=0.5;entryY=0;entryDx=0;entryDy=0;startArrow=none;startFill=0;endArrow=classic;endFill=1;" edge="1" parent="GLYqAjuNMtgstDjASy-6-1" source="_DNNPBdsLXVvUUD2MulV-8" target="_DNNPBdsLXVvUUD2MulV-5">
                    <mxGeometry relative="1" as="geometry"/>
                </mxCell>
                <mxCell id="_DNNPBdsLXVvUUD2MulV-8" value="可燃？" style="rhombus;whiteSpace=wrap;html=1;" vertex="1" parent="GLYqAjuNMtgstDjASy-6-1">
                    <mxGeometry x="390" y="440" width="80" height="80" as="geometry"/>
                </mxCell>
                <mxCell id="_DNNPBdsLXVvUUD2MulV-9" value="true" style="text;html=1;strokeColor=none;fillColor=none;align=center;verticalAlign=middle;whiteSpace=wrap;rounded=0;" vertex="1" parent="GLYqAjuNMtgstDjASy-6-1">
                    <mxGeometry x="370" y="520" width="40" height="20" as="geometry"/>
                </mxCell>
                <mxCell id="_DNNPBdsLXVvUUD2MulV-10" value="false" style="text;html=1;strokeColor=none;fillColor=none;align=center;verticalAlign=middle;whiteSpace=wrap;rounded=0;" vertex="1" parent="GLYqAjuNMtgstDjASy-6-1">
                    <mxGeometry x="475" y="490" width="40" height="20" as="geometry"/>
                </mxCell>
                <mxCell id="_DNNPBdsLXVvUUD2MulV-15" style="edgeStyle=orthogonalEdgeStyle;rounded=0;orthogonalLoop=1;jettySize=auto;html=1;exitX=0.5;exitY=1;exitDx=0;exitDy=0;startArrow=none;startFill=0;endArrow=classic;endFill=1;" edge="1" parent="GLYqAjuNMtgstDjASy-6-1" source="Uc7_NXfSTI6Ex5To0u7a-4" target="Uc7_NXfSTI6Ex5To0u7a-4">
                    <mxGeometry relative="1" as="geometry"/>
                </mxCell>
                <mxCell id="_DNNPBdsLXVvUUD2MulV-16" value="色が戻っていく" style="rounded=0;whiteSpace=wrap;html=1;" vertex="1" parent="GLYqAjuNMtgstDjASy-6-1">
                    <mxGeometry x="540" y="700" width="120" height="60" as="geometry"/>
                </mxCell>
            </root>
        </mxGraphModel>
    </diagram>
</mxfile>